<?xml version="1.0" encoding="UTF-8" standalone="no"?>
<!-- Created with Inkscape (http://www.inkscape.org/) -->

<svg
   version="1.1"
   id="svg1"
   width="640"
   height="640"
   viewBox="0 0 639.99999 640"
   sodipodi:docname="favicon.svg"
   inkscape:version="1.3 (0e150ed6c4, 2023-07-21)"
   xmlns:inkscape="http://www.inkscape.org/namespaces/inkscape"
   xmlns:sodipodi="http://sodipodi.sourceforge.net/DTD/sodipodi-0.dtd"
   xmlns="http://www.w3.org/2000/svg"
   xmlns:svg="http://www.w3.org/2000/svg">
  <defs
     id="defs1">
    <clipPath
       clipPathUnits="userSpaceOnUse"
       id="clipPath2">
      <path
         d="M 0,0 H 5691.666 V 3200.5854 H 0 Z"
         transform="scale(0.31994147)"
         clip-rule="evenodd"
         id="path2" />
    </clipPath>
    <clipPath
       clipPathUnits="userSpaceOnUse"
       id="clipPath3">
      <path
         d="m 2136.3867,1150.5066 h -885.9266 l -229.1407,451.3433 h 897.7304 z"
         transform="matrix(0.21242229,0,0,0.13529359,-207.38069,-88.50911)"
         id="path3" />
    </clipPath>
    <clipPath
       clipPathUnits="userSpaceOnUse"
       id="clipPath4">
      <path
         d="m 1018.6346,1149.4197 h 1120.4099 v 458.2627 H 1018.6346 Z"
         transform="matrix(0.31999999,0,0,0.31999999,0,2.6666667e-5)"
         id="path4" />
    </clipPath>
    <clipPath
       clipPathUnits="userSpaceOnUse"
       id="clipPath5">
      <path
         d="M 0,0 H 5691.666 V 3200.5854 H 0 Z"
         transform="matrix(0.31999999,0,0,0.31999999,0,2.6666667e-5)"
         id="path5" />
    </clipPath>
    <clipPath
       clipPathUnits="userSpaceOnUse"
       id="clipPath6">
      <path
         d="M 0,0 H 5691.666 V 3200.5854 H 0 Z"
         transform="matrix(0.31999999,0,0,0.31999999,0,2.6666667e-5)"
         id="path6" />
    </clipPath>
    <clipPath
       clipPathUnits="userSpaceOnUse"
       id="clipPath10">
      <path
         d="M 0,0 H 5691.666 V 3231.8411 H 0 Z"
         transform="matrix(0.31999999,0,0,0.31999999,0,2.6666667e-5)"
         id="path10" />
    </clipPath>
    <clipPath
       clipPathUnits="userSpaceOnUse"
       id="clipPath11">
      <path
         d="M 2136.3867,1150.5066 H 1250.4601 L 1021.3194,699.25354 h 897.7304 z"
         transform="matrix(0.21242229,0,0,0.13529359,-207.38069,-88.50911)"
         id="path11" />
    </clipPath>
    <clipPath
       clipPathUnits="userSpaceOnUse"
       id="clipPath12">
      <path
         d="M 1018.6346,698.54834 H 2139.0445 V 1156.811 H 1018.6346 Z"
         transform="matrix(0.31999999,0,0,0.31999999,0,2.6666667e-5)"
         id="path12" />
    </clipPath>
    <clipPath
       clipPathUnits="userSpaceOnUse"
       id="clipPath13">
      <path
         d="M 0,0 H 5691.666 V 3200.5854 H 0 Z"
         transform="matrix(0.31999999,0,0,0.31999999,0,2.6666667e-5)"
         id="path13" />
    </clipPath>
    <clipPath
       clipPathUnits="userSpaceOnUse"
       id="clipPath14">
      <path
         d="M 0,0 H 5691.666 V 3200.5854 H 0 Z"
         transform="matrix(0.31999999,0,0,0.31999999,0,2.6666667e-5)"
         id="path14" />
    </clipPath>
    <clipPath
       clipPathUnits="userSpaceOnUse"
       id="clipPath18">
      <path
         d="M 0,0 H 5691.666 V 3231.8411 H 0 Z"
         transform="matrix(0.31999999,0,0,0.31999999,0,2.6666667e-5)"
         id="path18" />
    </clipPath>
    <clipPath
       clipPathUnits="userSpaceOnUse"
       id="clipPath19">
      <path
         d="m 2136.3867,2050.0393 h -885.9266 l -229.1407,451.2529 h 897.7304 z"
         transform="matrix(0.21242229,0,0,0.13529359,-207.38069,-88.50911)"
         id="path19" />
    </clipPath>
    <clipPath
       clipPathUnits="userSpaceOnUse"
       id="clipPath20">
      <path
         d="m 1018.6346,2043.771 h 1120.4099 v 458.2627 H 1018.6346 Z"
         transform="matrix(0.31999999,0,0,0.31999999,0,2.6666667e-5)"
         id="path20" />
    </clipPath>
    <clipPath
       clipPathUnits="userSpaceOnUse"
       id="clipPath21">
      <path
         d="M 0,0 H 5691.666 V 3200.5854 H 0 Z"
         transform="matrix(0.31999999,0,0,0.31999999,0,2.6666667e-5)"
         id="path21" />
    </clipPath>
    <clipPath
       clipPathUnits="userSpaceOnUse"
       id="clipPath22">
      <path
         d="M 0,0 H 5691.666 V 3200.5854 H 0 Z"
         transform="matrix(0.31999999,0,0,0.31999999,0,2.6666667e-5)"
         id="path22" />
    </clipPath>
    <clipPath
       clipPathUnits="userSpaceOnUse"
       id="clipPath26">
      <path
         d="M 0,0 H 5691.666 V 3231.8411 H 0 Z"
         transform="matrix(0.31999999,0,0,0.31999999,0,2.6666667e-5)"
         id="path26" />
    </clipPath>
    <clipPath
       clipPathUnits="userSpaceOnUse"
       id="clipPath27">
      <path
         d="M 2136.3867,2050.0393 H 1250.4601 L 1021.3194,1598.696 h 897.7304 z"
         transform="matrix(0.21242229,0,0,0.13529359,-207.38069,-88.50911)"
         id="path27" />
    </clipPath>
    <clipPath
       clipPathUnits="userSpaceOnUse"
       id="clipPath28">
      <path
         d="m 1018.6346,1592.8997 h 1120.4099 v 458.2624 H 1018.6346 Z"
         transform="matrix(0.31999999,0,0,0.31999999,0,2.6666667e-5)"
         id="path28" />
    </clipPath>
    <clipPath
       clipPathUnits="userSpaceOnUse"
       id="clipPath29">
      <path
         d="M 0,0 H 5691.666 V 3200.5854 H 0 Z"
         transform="matrix(0.31999999,0,0,0.31999999,0,2.6666667e-5)"
         id="path29" />
    </clipPath>
    <clipPath
       clipPathUnits="userSpaceOnUse"
       id="clipPath30">
      <path
         d="M 0,0 H 5691.666 V 3200.5854 H 0 Z"
         transform="matrix(0.31999999,0,0,0.31999999,0,2.6666667e-5)"
         id="path30" />
    </clipPath>
    <clipPath
       clipPathUnits="userSpaceOnUse"
       id="clipPath34">
      <path
         d="M 0,0 H 5691.666 V 3231.8411 H 0 Z"
         transform="matrix(0.31999999,0,0,0.31999999,0,2.6666667e-5)"
         id="path34" />
    </clipPath>
  </defs>
  <sodipodi:namedview
     id="namedview1"
     pagecolor="#ffffff"
     bordercolor="#000000"
     borderopacity="0.25"
     inkscape:showpageshadow="2"
     inkscape:pageopacity="0.0"
     inkscape:pagecheckerboard="0"
     inkscape:deskcolor="#d1d1d1"
     inkscape:export-bgcolor="#ffffff00"
     inkscape:zoom="1.8234375"
     inkscape:cx="319.72579"
     inkscape:cy="320"
     inkscape:window-width="3440"
     inkscape:window-height="1371"
     inkscape:window-x="0"
     inkscape:window-y="32"
     inkscape:window-maximized="1"
     inkscape:current-layer="g1" />
  <g
     id="g1"
     inkscape:groupmode="layer"
     inkscape:label="1"
     transform="translate(-190.30709,-193.65838)">
    <g
       id="g10"
       clip-path="url(#clipPath10)">
      <g
         clip-path="url(#clipPath6)"
         id="g9">
        <g
           clip-path="url(#clipPath5)"
           id="g8">
          <g
             clip-path="url(#clipPath4)"
             id="g7">
            <path
               d="M 0,0 H 256 V 256 H 0 Z"
               style="fill:#f7b93e;fill-opacity:1;fill-rule:nonzero;stroke:none"
               transform="matrix(1.5064332,0,0,2.3652265,312.40516,209.34412)"
               clip-path="url(#clipPath3)"
               id="path7" />
          </g>
        </g>
      </g>
    </g>
    <g
       id="g18"
       clip-path="url(#clipPath18)">
      <g
         clip-path="url(#clipPath14)"
         id="g17">
        <g
           clip-path="url(#clipPath13)"
           id="g16">
          <g
             clip-path="url(#clipPath12)"
             id="g15">
            <path
               d="M 0,0 H 256 V 256 H 0 Z"
               style="fill:#f7f558;fill-opacity:1;fill-rule:nonzero;stroke:none"
               transform="matrix(1.5064332,0,0,2.3652265,312.40516,209.34412)"
               clip-path="url(#clipPath11)"
               id="path15" />
          </g>
        </g>
      </g>
    </g>
    <g
       id="g26"
       clip-path="url(#clipPath26)">
      <g
         clip-path="url(#clipPath22)"
         id="g25">
        <g
           clip-path="url(#clipPath21)"
           id="g24">
          <g
             clip-path="url(#clipPath20)"
             id="g23">
            <path
               d="M 0,0 H 256 V 256 H 0 Z"
               style="fill:#7ed7f7;fill-opacity:1;fill-rule:nonzero;stroke:none"
               transform="matrix(1.5064332,0,0,2.3652265,312.40516,209.34412)"
               clip-path="url(#clipPath19)"
               id="path23" />
          </g>
        </g>
      </g>
    </g>
    <g
       id="g34"
       clip-path="url(#clipPath34)">
      <g
         clip-path="url(#clipPath30)"
         id="g33">
        <g
           clip-path="url(#clipPath29)"
           id="g32">
          <g
             clip-path="url(#clipPath28)"
             id="g31">
            <path
               d="M 0,0 H 256 V 256 H 0 Z"
               style="fill:#f66968;fill-opacity:1;fill-rule:nonzero;stroke:none"
               transform="matrix(1.5064332,0,0,2.3652265,312.40516,209.34412)"
               clip-path="url(#clipPath27)"
               id="path31" />
          </g>
        </g>
      </g>
    </g>
  </g>
</svg>
