<svg width="32" height="32" viewBox="0 0 32 32" fill="none" xmlns="http://www.w3.org/2000/svg">
<path d="M1.55566 12.8945C1.55566 12.7762 1.62475 12.6689 1.73237 12.6199L8.5274 9.5272C8.72716 9.43628 8.95405 9.5823 8.95405 9.80178V19.0725C8.95405 19.1907 8.88497 19.2981 8.77735 19.3471L1.98232 22.4398C1.78256 22.5307 1.55566 22.3847 1.55566 22.1652V12.8945Z" fill="#33BBFF"/>
<path d="M15.8828 12.8945C15.8828 12.7762 15.9519 12.6689 16.0595 12.6199L22.8545 9.5272C23.0543 9.43628 23.2812 9.5823 23.2812 9.80178V19.0725C23.2812 19.1907 23.2121 19.2981 23.1045 19.3471L16.3095 22.4398C16.1097 22.5307 15.8828 22.3847 15.8828 22.1652V12.8945Z" fill="#E79CC2"/>
<path d="M23.0459 19.0723C23.0459 19.1906 23.115 19.2979 23.2226 19.3469L30.0176 22.4396C30.2174 22.5305 30.4443 22.3845 30.4443 22.165V12.8943C30.4443 12.7761 30.3752 12.6687 30.2676 12.6197L23.4726 9.52701C23.2728 9.4361 23.0459 9.58212 23.0459 9.80159V19.0723Z" fill="#CE3683"/>
<path d="M8.71802 19.0723C8.71802 19.1906 8.7871 19.2979 8.89473 19.3469L15.6898 22.4396C15.8895 22.5305 16.1164 22.3845 16.1164 22.165V12.8943C16.1164 12.7761 16.0473 12.6687 15.9397 12.6197L9.14467 9.52701C8.94492 9.4361 8.71802 9.58212 8.71802 9.80159V19.0723Z" fill="#0077B2"/>
</svg>
